<svg width="363" height="106" viewBox="0 0 363 106" fill="none" xmlns="http://www.w3.org/2000/svg">
    <g filter="url(#vjx6y1d95a)">
        <rect x="24" y="10" width="315" height="58" rx="16" fill="url(#rfcys465ab)"/>
    </g>
    <path d="M157.416 46.24c-1.28 0-2.248-.36-2.904-1.08-.656-.736-.984-1.784-.984-3.144v-.96h2.496v1.152c0 1.088.456 1.632 1.368 1.632.448 0 .784-.128 1.008-.384.24-.272.36-.704.36-1.296 0-.704-.16-1.32-.48-1.848-.32-.544-.912-1.192-1.776-1.944-1.088-.96-1.848-1.824-2.28-2.592-.432-.784-.648-1.664-.648-2.64 0-1.328.336-2.352 1.008-3.072.672-.736 1.648-1.104 2.928-1.104 1.264 0 2.216.368 2.856 1.104.656.72.984 1.76.984 3.12v.696h-2.496v-.864c0-.576-.112-.992-.336-1.248-.224-.272-.552-.408-.984-.408-.88 0-1.32.536-1.32 1.608 0 .608.16 1.176.48 1.704.336.528.936 1.168 1.8 1.92 1.104.96 1.864 1.832 2.28 2.616.416.784.624 1.704.624 2.76 0 1.376-.344 2.432-1.032 3.168-.672.736-1.656 1.104-2.952 1.104zm5.498-17.04h2.64V46h-2.64V29.2zm8.361 17.04c-1.28 0-2.256-.36-2.928-1.08-.672-.736-1.008-1.784-1.008-3.144v-8.832c0-1.36.336-2.4 1.008-3.12.672-.736 1.648-1.104 2.928-1.104s2.256.368 2.928 1.104c.672.72 1.008 1.76 1.008 3.12v1.44h-2.496v-1.608c0-1.104-.456-1.656-1.368-1.656-.912 0-1.368.552-1.368 1.656v9.192c0 1.088.456 1.632 1.368 1.632.912 0 1.368-.544 1.368-1.632V38.92h-1.32v-2.4h3.816v5.496c0 1.36-.336 2.408-1.008 3.144-.672.72-1.648 1.08-2.928 1.08zm5.631-17.04h3.312l2.568 10.056h.048V29.2h2.352V46h-2.712l-3.168-12.264h-.048V46h-2.352V29.2zm17.926 17.04c-1.28 0-2.256-.36-2.928-1.08-.672-.736-1.008-1.784-1.008-3.144V29.2h2.64v13.008c0 .576.112.992.336 1.248.24.256.576.384 1.008.384.432 0 .76-.128.984-.384.24-.256.36-.672.36-1.248V29.2h2.544v12.816c0 1.36-.336 2.408-1.008 3.144-.672.72-1.648 1.08-2.928 1.08zm5.816-17.04h3.888c1.312 0 2.296.352 2.952 1.056.656.704.984 1.736.984 3.096v1.656c0 1.36-.328 2.392-.984 3.096-.656.704-1.64 1.056-2.952 1.056h-1.248V46h-2.64V29.2zm3.888 7.56c.432 0 .752-.12.96-.36.224-.24.336-.648.336-1.224v-1.992c0-.576-.112-.984-.336-1.224-.208-.24-.528-.36-.96-.36h-1.248v5.16h1.248z" fill="#fff"/>
    <defs>
        <linearGradient id="rfcys465ab" x1="108.88" y1="10" x2="107.627" y2="65.097" gradientUnits="userSpaceOnUse">
            <stop stop-color="#9FE860"/>
            <stop offset="1" stop-color="#50CE3B"/>
        </linearGradient>
        <filter id="vjx6y1d95a" x="0" y="0" width="363" height="106" filterUnits="userSpaceOnUse" color-interpolation-filters="sRGB">
            <feFlood flood-opacity="0" result="BackgroundImageFix"/>
            <feColorMatrix in="SourceAlpha" values="0 0 0 0 0 0 0 0 0 0 0 0 0 0 0 0 0 0 127 0" result="hardAlpha"/>
            <feOffset dy="14"/>
            <feGaussianBlur stdDeviation="12"/>
            <feColorMatrix values="0 0 0 0 0.185508 0 0 0 0 0.0820833 0 0 0 0 0.820833 0 0 0 0.1 0"/>
            <feBlend in2="BackgroundImageFix" result="effect1_dropShadow_6_1185"/>
            <feBlend in="SourceGraphic" in2="effect1_dropShadow_6_1185" result="shape"/>
        </filter>
    </defs>
</svg>
